<?xml version="1.0" encoding="utf-8"?>
<!-- Generator: Adobe Illustrator 24.1.2, SVG Export Plug-In . SVG Version: 6.00 Build 0)  -->
<svg version="1.1" id="Warstwa_1" xmlns="http://www.w3.org/2000/svg" xmlns:xlink="http://www.w3.org/1999/xlink" x="0px" y="0px"
	 viewBox="0 0 24 24" style="enable-background:new 0 0 24 24;" xml:space="preserve">
<path id="wd" d="M21.43,0H2.57C1.15,0,0,1.15,0,2.57v18.86C0,22.85,1.15,24,2.57,24h18.86c1.42,0,2.57-1.15,2.57-2.57V2.57
	C24,1.15,22.85,0,21.43,0z M22.29,21.43c0,0.47-0.38,0.86-0.86,0.86H2.57c-0.47,0-0.86-0.38-0.86-0.86V2.57
	c0-0.47,0.38-0.86,0.86-0.86h18.86c0.47,0,0.86,0.38,0.86,0.86V21.43z M12,16.5c-0.83,0-1.5,0.67-1.5,1.5s0.67,1.5,1.5,1.5
	s1.5-0.67,1.5-1.5S12.83,16.5,12,16.5L12,16.5z M12.41,15.21h-0.86c-0.36,0-0.64-0.29-0.64-0.64v-0.02c0-3.77,4.15-3.41,4.15-5.75
	c0-1.07-0.95-2.15-3.08-2.15c-1.56,0-2.37,0.52-3.17,1.54C8.6,8.45,8.22,8.5,7.94,8.31l-0.7-0.49c-0.29-0.2-0.36-0.6-0.16-0.89
	C7.08,6.91,7.09,6.91,7.09,6.9c1.14-1.46,2.49-2.4,4.89-2.4c2.8,0,5.22,1.59,5.22,4.3c0,3.61-4.15,3.42-4.15,5.75v0.02
	C13.05,14.93,12.77,15.21,12.41,15.21L12.41,15.21z"/>
</svg>
