<?xml version="1.0" encoding="iso-8859-1"?>
<!-- Generator: Adobe Illustrator 19.0.0, SVG Export Plug-In . SVG Version: 6.00 Build 0)  -->
<svg version="1.1" id="Layer_1" xmlns="http://www.w3.org/2000/svg" xmlns:xlink="http://www.w3.org/1999/xlink" x="0px" y="0px"
	 viewBox="0 0 423.511 423.511" style="enable-background:new 0 0 423.511 423.511;" xml:space="preserve">
<g>
	<g>
		<g>
			<path d="M73.772,318.148c13.631,0,24.72-11.089,24.72-24.72c0-5.523,4.477-10,10-10s10,4.477,10,10
				c0,13.631,11.09,24.72,24.721,24.72c13.631,0,24.72-11.089,24.72-24.72c0-5.523,4.477-10,10-10c5.523,0,10,4.477,10,10
				c0,13.631,11.089,24.72,24.72,24.72s24.72-11.089,24.72-24.72c0-5.523,4.477-10,10-10c5.523,0,10,4.477,10,10
				c0,13.631,11.089,24.72,24.72,24.72c13.631,0,24.721-11.089,24.721-24.72c0-5.523,4.477-10,10-10s10,4.477,10,10
				c0,13.631,11.089,24.72,24.72,24.72c8.374,0,15.784-4.189,20.257-10.578v-56.863c0.001-25.001-19.834-45.447-44.593-46.452
				H98.109c-24.759,1.004-44.594,21.451-44.594,46.452v56.863C57.989,313.959,65.398,318.148,73.772,318.148z"/>
			<path d="M249.756,139.339c0-4.796-3.378-8.799-7.884-9.771c-7.096,5.252-15.578,8.427-24.71,9.045
				c-1.097,0.074-2.211,0.112-3.31,0.112c-1.1,0-2.213-0.038-3.308-0.112c-9.134-0.618-17.617-3.793-24.712-9.045
				c-4.505,0.972-7.883,4.975-7.883,9.771v54.25h71.807V139.339z"/>
			<path d="M211.758,120.654c0.692,0.047,1.397,0.071,2.094,0.071c0.696,0,1.401-0.024,2.093-0.071
				c9.331-0.631,17.593-5.585,22.667-13.592c5.171-8.161,6.159-18.386,2.644-27.354l-18.094-46.161
				c-1.501-3.831-5.196-6.351-9.31-6.351c-4.114,0-7.809,2.52-9.31,6.351l-18.094,46.161c-3.516,8.968-2.527,19.193,2.644,27.354
				C194.166,115.069,202.428,120.024,211.758,120.654z"/>
			<path d="M408.511,366.314h-36.718v-33.038c-6.087,3.107-12.968,4.871-20.257,4.871c-13.997,0-26.514-6.465-34.72-16.565
				c-8.207,10.1-20.724,16.565-34.721,16.565s-26.514-6.465-34.72-16.565c-8.206,10.1-20.723,16.565-34.72,16.565
				s-26.514-6.465-34.72-16.565c-8.206,10.1-20.723,16.565-34.72,16.565s-26.514-6.465-34.721-16.565
				c-8.206,10.1-20.723,16.565-34.72,16.565c-7.29,0-14.171-1.764-20.257-4.871v33.038H15c-8.284,0-15,6.716-15,15s6.716,15,15,15
				h393.511c8.284,0,15-6.716,15-15S416.795,366.314,408.511,366.314z"/>
		</g>
	</g>
</g>
<g>
</g>
<g>
</g>
<g>
</g>
<g>
</g>
<g>
</g>
<g>
</g>
<g>
</g>
<g>
</g>
<g>
</g>
<g>
</g>
<g>
</g>
<g>
</g>
<g>
</g>
<g>
</g>
<g>
</g>
</svg>
