<?xml version="1.0" encoding="utf-8"?>
<!-- Generator: Adobe Illustrator 24.1.2, SVG Export Plug-In . SVG Version: 6.00 Build 0)  -->
<svg version="1.1" id="Warstwa_1" xmlns="http://www.w3.org/2000/svg" xmlns:xlink="http://www.w3.org/1999/xlink" x="0px" y="0px"
	 viewBox="0 0 24 24" style="enable-background:new 0 0 24 24;" xml:space="preserve">
<path id="wd" d="M23.93,7.57L22,3.52c-0.1-0.21-0.31-0.35-0.55-0.36C21.43,3.16,12,4.42,12,4.42S2.57,3.16,2.55,3.16
	C2.31,3.17,2.1,3.3,2,3.52L0.07,7.57c-0.16,0.32-0.03,0.71,0.3,0.87c0.03,0.01,0.05,0.02,0.08,0.03L2.4,9.07v8.34
	c-0.01,0.57,0.36,1.07,0.91,1.22l8.11,2.13c0.38,0.1,0.78,0.1,1.16,0l8.11-2.13c0.54-0.16,0.92-0.66,0.91-1.22V9.07l1.95-0.59
	c0.34-0.11,0.53-0.48,0.42-0.83C23.96,7.63,23.95,7.6,23.93,7.57z M2.88,4.47l7.14,0.96L7.77,9.37l-6.31-1.9L2.88,4.47L2.88,4.47z
	 M3.6,9.43c4.62,1.39,4.31,1.31,4.44,1.31c0.22,0,0.42-0.12,0.52-0.31l2.84-4.95v13.98l-7.8-2.05V9.43z M20.4,17.41l-7.8,2.05V5.47
	l2.84,4.95c0.11,0.19,0.31,0.31,0.52,0.31c0.12,0-0.2,0.08,4.44-1.31L20.4,17.41z M16.23,9.37l-2.25-3.94l7.13-0.95l1.42,3
	L16.23,9.37z"/>
</svg>
