<?xml version="1.0" encoding="utf-8"?>
<!-- Generator: Adobe Illustrator 24.1.2, SVG Export Plug-In . SVG Version: 6.00 Build 0)  -->
<svg version="1.1" id="Warstwa_1" xmlns="http://www.w3.org/2000/svg" xmlns:xlink="http://www.w3.org/1999/xlink" x="0px" y="0px"
	 viewBox="0 0 24 24" style="enable-background:new 0 0 24 24;" xml:space="preserve">
<g>
	<g>
		<g>
			<path d="M23,2h-1.17C21.42,0.83,20.31,0,19,0s-2.42,0.83-2.83,2h-1.34C14.42,0.83,13.31,0,12,0S9.58,0.83,9.17,2H7.83
				C7.42,0.83,6.31,0,5,0S2.58,0.83,2.17,2H1C0.45,2,0,2.45,0,3v5v14c0,0.55,0.45,1,1,1h22c0.55,0,1-0.45,1-1V8V3
				C24,2.45,23.55,2,23,2z M2,4h1c0.55,0,1-0.45,1-1c0-0.55,0.45-1,1-1s1,0.45,1,1S5.55,4,5,4C4.45,4,4,4.45,4,5s0.45,1,1,1
				c1.31,0,2.42-0.83,2.83-2H10c0.55,0,1-0.45,1-1c0-0.55,0.45-1,1-1s1,0.45,1,1s-0.45,1-1,1c-0.55,0-1,0.45-1,1s0.45,1,1,1
				c1.31,0,2.42-0.83,2.83-2H17c0.55,0,1-0.45,1-1c0-0.55,0.45-1,1-1s1,0.45,1,1s-0.45,1-1,1c-0.55,0-1,0.45-1,1s0.45,1,1,1
				c1.31,0,2.42-0.83,2.83-2H22v3H2V4z M2,21V9h20v12H2z"/>
			<path d="M6,12c-0.55,0-1,0.45-1,1s0.45,1,1,1s1-0.45,1-1S6.55,12,6,12z"/>
			<path d="M12,12c-0.55,0-1,0.45-1,1s0.45,1,1,1s1-0.45,1-1S12.55,12,12,12z"/>
			<path d="M18,12c-0.55,0-1,0.45-1,1s0.45,1,1,1s1-0.45,1-1S18.55,12,18,12z"/>
			<path d="M6,17c-0.55,0-1,0.45-1,1c0,0.55,0.45,1,1,1s1-0.45,1-1C7,17.45,6.55,17,6,17z"/>
			<path d="M12,17c-0.55,0-1,0.45-1,1c0,0.55,0.45,1,1,1s1-0.45,1-1C13,17.45,12.55,17,12,17z"/>
			<path d="M18,17c-0.55,0-1,0.45-1,1c0,0.55,0.45,1,1,1s1-0.45,1-1C19,17.45,18.55,17,18,17z"/>
		</g>
	</g>
</g>
</svg>
