<?xml version="1.0" encoding="utf-8"?>
<!-- Generator: Adobe Illustrator 24.1.2, SVG Export Plug-In . SVG Version: 6.00 Build 0)  -->
<svg version="1.1" id="Warstwa_1" xmlns="http://www.w3.org/2000/svg" xmlns:xlink="http://www.w3.org/1999/xlink" x="0px" y="0px"
	 viewBox="0 0 24 24" style="enable-background:new 0 0 24 24;" xml:space="preserve">
<path d="M12.19,24.05c6.62,0,12-5.38,12-12c0-6.62-5.38-12-12-12H11.1v5.71h2.16V2.28c4.96,0.54,8.75,4.72,8.75,9.78
	c0,5.42-4.41,9.84-9.83,9.84c-5.42,0-9.83-4.41-9.83-9.84c0-2.22,0.72-4.31,2.09-6.06l0.38-0.49l-1.7-1.33L2.73,4.66
	c-1.67,2.13-2.55,4.68-2.55,7.39C0.19,18.67,5.57,24.05,12.19,24.05"/>
<g>
	<path d="M10.46,13.89c0.39,0.47,0.94,0.76,1.55,0.81c0.07,0.01,0.14,0.01,0.21,0.01c1.17,0,2.17-0.91,2.28-2.08
		c0.06-0.61-0.13-1.2-0.52-1.67c-0.39-0.47-0.94-0.76-1.55-0.82c-0.2-0.02-0.4-0.01-0.62,0.04L5.2,4.58l4.86,7.14
		c-0.06,0.18-0.1,0.34-0.11,0.5C9.88,12.83,10.07,13.42,10.46,13.89z"/>
</g>
</svg>
