<?xml version="1.0" encoding="utf-8"?>
<!-- Generator: Adobe Illustrator 25.1.0, SVG Export Plug-In . SVG Version: 6.00 Build 0)  -->
<svg version="1.1" id="Layer_1" xmlns="http://www.w3.org/2000/svg" xmlns:xlink="http://www.w3.org/1999/xlink" x="0px" y="0px"
	 viewBox="0 0 24 24" style="enable-background:new 0 0 24 24;" xml:space="preserve">

<g>
	<path  d="M23.48,0H0.52C0.23,0,0,0.23,0,0.52v22.95C0,23.76,0.24,24,0.53,24h12.28v-9.29H9.69v-3.62h3.13V8.41
		c0-3.1,1.89-4.79,4.66-4.79c1.33,0,2.46,0.1,2.79,0.14V7h-1.92c-1.5,0-1.79,0.71-1.79,1.76v2.31h3.59l-0.47,3.62h-3.12V24h6.91
		c0.29,0,0.53-0.24,0.53-0.53V0.52C24,0.23,23.77,0,23.48,0z"/>
</g>
</svg>
