<?xml version="1.0" encoding="utf-8"?>
<!-- Generator: Adobe Illustrator 25.1.0, SVG Export Plug-In . SVG Version: 6.00 Build 0)  -->
<svg version="1.1" id="Layer_1" xmlns="http://www.w3.org/2000/svg" xmlns:xlink="http://www.w3.org/1999/xlink" x="0px" y="0px"
	 viewBox="0 0 24 24" style="enable-background:new 0 0 24 24;" xml:space="preserve">

<path  d="M12,0.3c-6.63,0-12,5.37-12,12c0,5.3,3.44,9.8,8.2,11.39c0.6,0.11,0.82-0.26,0.82-0.58
	c0-0.28-0.01-1.04-0.02-2.04c-3.34,0.72-4.04-1.61-4.04-1.61c-0.55-1.38-1.33-1.75-1.33-1.75c-1.09-0.74,0.08-0.73,0.08-0.73
	c1.2,0.08,1.84,1.24,1.84,1.24c1.07,1.83,2.81,1.31,3.49,1c0.11-0.78,0.42-1.31,0.76-1.6c-2.66-0.3-5.47-1.33-5.47-5.93
	c0-1.31,0.47-2.38,1.24-3.22c-0.14-0.3-0.54-1.52,0.11-3.18c0,0,1.01-0.32,3.3,1.23c0.96-0.27,1.98-0.4,3-0.41
	c1.02,0.01,2.04,0.14,3,0.41c2.28-1.55,3.29-1.23,3.29-1.23c0.65,1.65,0.24,2.87,0.12,3.18c0.76,0.84,1.23,1.91,1.23,3.22
	c0,4.61-2.81,5.63-5.48,5.92c0.42,0.36,0.81,1.1,0.81,2.22c0,1.61-0.02,2.9-0.02,3.29c0,0.32,0.21,0.69,0.82,0.57
	C20.57,22.09,24,17.59,24,12.3C24,5.67,18.63,0.3,12,0.3"/>
</svg>
