<?xml version="1.0" encoding="utf-8"?>
<!-- Generator: Adobe Illustrator 24.1.2, SVG Export Plug-In . SVG Version: 6.00 Build 0)  -->
<svg version="1.1" id="Warstwa_1" xmlns="http://www.w3.org/2000/svg" xmlns:xlink="http://www.w3.org/1999/xlink" x="0px" y="0px"
	 viewBox="0 0 24 24" style="enable-background:new 0 0 24 24;" xml:space="preserve">
<style type="text/css">
	.st0{fill:#FF1D25;}
</style>
<g>
	<g>
		<path class="st0" d="M17.74,2.39c-2.94,0-5.37,2.19-5.74,5.03c-0.37-2.84-2.8-5.03-5.74-5.03c-3.2,0-5.79,2.59-5.79,5.79
			s3.84,6.48,5.57,7.96C7.66,17.53,12,21.61,12,21.61s4.34-4.08,5.95-5.47c1.73-1.48,5.57-4.77,5.57-7.96S20.93,2.39,17.74,2.39z"/>
		<path d="M12,22.09c-0.12,0-0.24-0.04-0.33-0.13c-0.04-0.04-4.35-4.09-5.94-5.46l-0.02-0.01C3.86,14.89,0,11.58,0,8.18
			c0-3.45,2.81-6.26,6.26-6.26c2.53,0,4.76,1.53,5.74,3.75c0.98-2.22,3.2-3.75,5.74-3.75c3.45,0,6.26,2.81,6.26,6.26
			c0,3.4-3.86,6.72-5.72,8.31l-0.02,0.01c-1.59,1.36-5.9,5.42-5.94,5.46C12.24,22.04,12.12,22.09,12,22.09z M6.26,2.87
			c-2.93,0-5.31,2.38-5.31,5.31c0,2.97,3.77,6.2,5.38,7.59l0.02,0.01c1.35,1.15,4.6,4.2,5.64,5.18c1.04-0.98,4.3-4.02,5.64-5.18
			l0.02-0.01c1.61-1.38,5.38-4.62,5.38-7.59c0-2.93-2.38-5.31-5.31-5.31c-2.66,0-4.92,1.99-5.26,4.62C12.44,7.72,12.24,7.9,12,7.9
			c-0.24,0-0.44-0.18-0.47-0.42C11.18,4.85,8.92,2.87,6.26,2.87z"/>
	</g>
	<g>
		<path d="M12.05,19.7c-0.12,0-0.23-0.04-0.33-0.13c-1.29-1.2-3.61-3.36-4.68-4.28l-0.01-0.01c-0.18-0.15-0.38-0.33-0.6-0.52
			c-0.2-0.17-0.22-0.48-0.05-0.67c0.17-0.2,0.48-0.22,0.67-0.05c0.22,0.19,0.42,0.36,0.6,0.52l0.01,0.01
			c1.03,0.89,3.13,2.83,4.71,4.3c0.19,0.18,0.2,0.48,0.02,0.68C12.3,19.65,12.18,19.7,12.05,19.7z"/>
	</g>
	<g>
		<path d="M5.42,13.66c-0.12,0-0.24-0.04-0.33-0.14c-0.32-0.31-0.62-0.61-0.89-0.91c-0.18-0.19-0.17-0.5,0.03-0.68
			c0.19-0.18,0.5-0.17,0.68,0.03c0.26,0.28,0.55,0.58,0.85,0.87c0.19,0.18,0.19,0.49,0.01,0.68C5.67,13.62,5.54,13.66,5.42,13.66z"
			/>
	</g>
</g>
</svg>
