<?xml version="1.0" encoding="utf-8"?>
<!-- Generator: Adobe Illustrator 24.1.2, SVG Export Plug-In . SVG Version: 6.00 Build 0)  -->
<svg version="1.1" id="Warstwa_1" xmlns="http://www.w3.org/2000/svg" xmlns:xlink="http://www.w3.org/1999/xlink" x="0px" y="0px"
	 viewBox="0 0 24 24" style="enable-background:new 0 0 24 24;" xml:space="preserve">
<path d="M12,9.61c-1.32,0-2.39,1.07-2.39,2.39c0,1.32,1.07,2.39,2.39,2.39c1.32,0,2.39-1.07,2.39-2.39
	C14.39,10.68,13.32,9.61,12,9.61z M12,9.61c-1.32,0-2.39,1.07-2.39,2.39c0,1.32,1.07,2.39,2.39,2.39c1.32,0,2.39-1.07,2.39-2.39
	C14.39,10.68,13.32,9.61,12,9.61z M15.98,5.72H8.02c-1.27,0-2.3,1.03-2.3,2.3v7.95c0,1.27,1.03,2.3,2.3,2.3h7.95
	c1.27,0,2.3-1.03,2.3-2.3V8.02C18.28,6.76,17.24,5.72,15.98,5.72z M12,16.13c-2.28,0-4.13-1.85-4.13-4.13
	c0-2.28,1.85-4.13,4.13-4.13c2.28,0,4.13,1.85,4.13,4.13C16.13,14.28,14.28,16.13,12,16.13z M16.27,8.72
	c-0.54,0-0.98-0.44-0.98-0.98s0.44-0.98,0.98-0.98c0.54,0,0.98,0.44,0.98,0.98S16.81,8.72,16.27,8.72z M12,9.61
	c-1.32,0-2.39,1.07-2.39,2.39c0,1.32,1.07,2.39,2.39,2.39c1.32,0,2.39-1.07,2.39-2.39C14.39,10.68,13.32,9.61,12,9.61z M15.98,5.72
	H8.02c-1.27,0-2.3,1.03-2.3,2.3v7.95c0,1.27,1.03,2.3,2.3,2.3h7.95c1.27,0,2.3-1.03,2.3-2.3V8.02C18.28,6.76,17.24,5.72,15.98,5.72z
	 M12,16.13c-2.28,0-4.13-1.85-4.13-4.13c0-2.28,1.85-4.13,4.13-4.13c2.28,0,4.13,1.85,4.13,4.13C16.13,14.28,14.28,16.13,12,16.13z
	 M16.27,8.72c-0.54,0-0.98-0.44-0.98-0.98s0.44-0.98,0.98-0.98c0.54,0,0.98,0.44,0.98,0.98S16.81,8.72,16.27,8.72z M12,9.61
	c-1.32,0-2.39,1.07-2.39,2.39c0,1.32,1.07,2.39,2.39,2.39c1.32,0,2.39-1.07,2.39-2.39C14.39,10.68,13.32,9.61,12,9.61z M0,0v24h24V0
	H0z M20.02,15.98c0,2.23-1.82,4.05-4.05,4.05H8.02c-2.23,0-4.05-1.82-4.05-4.05V8.02c0-2.23,1.82-4.05,4.05-4.05h7.95
	c2.23,0,4.05,1.82,4.05,4.05L20.02,15.98L20.02,15.98z M15.98,5.72H8.02c-1.27,0-2.3,1.03-2.3,2.3v7.95c0,1.27,1.03,2.3,2.3,2.3
	h7.95c1.27,0,2.3-1.03,2.3-2.3V8.02C18.28,6.76,17.24,5.72,15.98,5.72z M12,16.13c-2.28,0-4.13-1.85-4.13-4.13
	c0-2.28,1.85-4.13,4.13-4.13c2.28,0,4.13,1.85,4.13,4.13C16.13,14.28,14.28,16.13,12,16.13z M16.27,8.72
	c-0.54,0-0.98-0.44-0.98-0.98s0.44-0.98,0.98-0.98c0.54,0,0.98,0.44,0.98,0.98S16.81,8.72,16.27,8.72z M12,9.61
	c-1.32,0-2.39,1.07-2.39,2.39c0,1.32,1.07,2.39,2.39,2.39c1.32,0,2.39-1.07,2.39-2.39C14.39,10.68,13.32,9.61,12,9.61z M12,9.61
	c-1.32,0-2.39,1.07-2.39,2.39c0,1.32,1.07,2.39,2.39,2.39c1.32,0,2.39-1.07,2.39-2.39C14.39,10.68,13.32,9.61,12,9.61z M12,9.61
	c-1.32,0-2.39,1.07-2.39,2.39c0,1.32,1.07,2.39,2.39,2.39c1.32,0,2.39-1.07,2.39-2.39C14.39,10.68,13.32,9.61,12,9.61z M15.98,5.72
	H8.02c-1.27,0-2.3,1.03-2.3,2.3v7.95c0,1.27,1.03,2.3,2.3,2.3h7.95c1.27,0,2.3-1.03,2.3-2.3V8.02C18.28,6.76,17.24,5.72,15.98,5.72z
	 M12,16.13c-2.28,0-4.13-1.85-4.13-4.13c0-2.28,1.85-4.13,4.13-4.13c2.28,0,4.13,1.85,4.13,4.13C16.13,14.28,14.28,16.13,12,16.13z
	 M16.27,8.72c-0.54,0-0.98-0.44-0.98-0.98s0.44-0.98,0.98-0.98c0.54,0,0.98,0.44,0.98,0.98S16.81,8.72,16.27,8.72z M12,9.61
	c-1.32,0-2.39,1.07-2.39,2.39c0,1.32,1.07,2.39,2.39,2.39c1.32,0,2.39-1.07,2.39-2.39C14.39,10.68,13.32,9.61,12,9.61z M12,9.61
	c-1.32,0-2.39,1.07-2.39,2.39c0,1.32,1.07,2.39,2.39,2.39c1.32,0,2.39-1.07,2.39-2.39C14.39,10.68,13.32,9.61,12,9.61z M12,9.61
	c-1.32,0-2.39,1.07-2.39,2.39c0,1.32,1.07,2.39,2.39,2.39c1.32,0,2.39-1.07,2.39-2.39C14.39,10.68,13.32,9.61,12,9.61z M15.98,5.72
	H8.02c-1.27,0-2.3,1.03-2.3,2.3v7.95c0,1.27,1.03,2.3,2.3,2.3h7.95c1.27,0,2.3-1.03,2.3-2.3V8.02C18.28,6.76,17.24,5.72,15.98,5.72z
	 M12,16.13c-2.28,0-4.13-1.85-4.13-4.13c0-2.28,1.85-4.13,4.13-4.13c2.28,0,4.13,1.85,4.13,4.13C16.13,14.28,14.28,16.13,12,16.13z
	 M16.27,8.72c-0.54,0-0.98-0.44-0.98-0.98s0.44-0.98,0.98-0.98c0.54,0,0.98,0.44,0.98,0.98S16.81,8.72,16.27,8.72z M12,9.61
	c-1.32,0-2.39,1.07-2.39,2.39c0,1.32,1.07,2.39,2.39,2.39c1.32,0,2.39-1.07,2.39-2.39C14.39,10.68,13.32,9.61,12,9.61z"/>
</svg>
