<?xml version="1.0" encoding="utf-8"?>
<!-- Generator: Adobe Illustrator 25.1.0, SVG Export Plug-In . SVG Version: 6.00 Build 0)  -->
<svg version="1.1" id="Layer_1" xmlns="http://www.w3.org/2000/svg" xmlns:xlink="http://www.w3.org/1999/xlink" x="0px" y="0px"
	 viewBox="0 0 512 512" style="enable-background:new 0 0 512 512;" xml:space="preserve">
<g>
	<path d="M255.79,170.6c-47,0-85.4,38.4-85.4,85.4s38.4,85.4,85.4,85.4s85.4-38.4,85.4-85.4S302.79,170.6,255.79,170.6z M500,0H12
		C5.37,0,0,5.37,0,12v488c0,6.63,5.37,12,12,12h488c6.63,0,12-5.37,12-12V12C512,5.37,506.63,0,500,0z M255.79,387.4
		c-72.7,0-131.4-58.7-131.4-131.4s58.7-131.4,131.4-131.4s131.4,58.7,131.4,131.4S328.49,387.4,255.79,387.4z M392.59,149.9
		c-17,0-30.7-13.7-30.7-30.7s13.7-30.7,30.7-30.7s30.7,13.7,30.7,30.7C423.29,136.2,409.59,149.9,392.59,149.9L392.59,149.9z"/>
</g>
</svg>
