<?xml version="1.0" encoding="utf-8"?>
<!-- Generator: Adobe Illustrator 25.1.0, SVG Export Plug-In . SVG Version: 6.00 Build 0)  -->
<svg version="1.1" id="Layer_1" xmlns="http://www.w3.org/2000/svg" xmlns:xlink="http://www.w3.org/1999/xlink" x="0px" y="0px"
	 viewBox="0 0 24 24" style="enable-background:new 0 0 24 24;" xml:space="preserve">
<g>
	<path  d="M13,10.78v-0.04c-0.01,0.01-0.02,0.02-0.02,0.04H13z"/>
	<path  d="M0,0v24h24V0H0z M7.46,19.94H3.9V9.23h3.56V19.94z M5.68,7.76H5.66c-1.19,0-1.97-0.82-1.97-1.85
		c0-1.05,0.8-1.85,2.02-1.85c1.22,0,1.97,0.8,1.99,1.85C7.7,6.94,6.93,7.76,5.68,7.76z M20.31,19.94h-3.56v-5.73
		c0-1.44-0.51-2.42-1.8-2.42c-0.98,0-1.57,0.66-1.83,1.3C13.02,13.32,13,13.63,13,13.96v5.98H9.43c0,0,0.05-9.71,0-10.71H13v1.52
		c0.47-0.73,1.32-1.77,3.21-1.77c2.34,0,4.1,1.53,4.1,4.82V19.94z"/>
</g>
</svg>
