<?xml version="1.0" encoding="utf-8"?>
<!-- Generator: Adobe Illustrator 24.1.2, SVG Export Plug-In . SVG Version: 6.00 Build 0)  -->
<svg version="1.1" id="Warstwa_1" xmlns="http://www.w3.org/2000/svg" xmlns:xlink="http://www.w3.org/1999/xlink" x="0px" y="0px"
	 viewBox="0 0 24 24" style="enable-background:new 0 0 24 24;" xml:space="preserve">
<path id="wd" d="M23.33,8c-0.09,0-0.17,0.02-0.25,0.05L16,10.67l-0.43-0.15c0.97-1.45,1.76-2.97,1.76-4.06
	c0-2.83-2.39-5.12-5.33-5.12s-5.33,2.3-5.33,5.12C6.7,7.05,6.85,7.62,7.1,8.15l-6.26,2.18C0.33,10.54,0,11.03,0,11.57V22
	c0,0.37,0.29,0.67,0.66,0.67c0.09,0,0.17-0.02,0.26-0.05L8,20l7.17,2.53c0.54,0.18,1.12,0.18,1.67,0.01l6.33-2.2
	c0.51-0.2,0.84-0.69,0.84-1.24V8.67C24,8.3,23.7,8,23.33,8C23.33,8,23.33,8,23.33,8z M7.33,18.83l-6,2.22l-0.05-9.45l6.06-2.1V18.83
	z M12,2.67c2.2,0,4,1.7,4,3.79c0,1.12-1.59,3.7-4,6.53c-2.41-2.83-4-5.41-4-6.53C8,4.37,9.8,2.67,12,2.67z M15.33,21.17l-6.67-2.35
	v-7.95c0.87,1.24,1.81,2.43,2.82,3.57c0.25,0.28,0.69,0.31,0.97,0.05c0.02-0.02,0.04-0.04,0.05-0.05c0.53-0.6,1.4-1.63,2.26-2.79
	l0.56,0.2L15.33,21.17z M16.67,21.18v-9.34l6-2.22l0.05,9.45L16.67,21.18z M13,6.67c0-0.55-0.45-1-1-1s-1,0.45-1,1s0.45,1,1,1
	C12.55,7.67,13,7.22,13,6.67z"/>
</svg>
