<?xml version="1.0" encoding="utf-8"?>
<!-- Generator: Adobe Illustrator 24.1.2, SVG Export Plug-In . SVG Version: 6.00 Build 0)  -->
<svg version="1.1" id="Warstwa_1" xmlns="http://www.w3.org/2000/svg" xmlns:xlink="http://www.w3.org/1999/xlink" x="0px" y="0px"
	 viewBox="0 0 24 24" style="enable-background:new 0 0 24 24;" xml:space="preserve">
<g>
	<path d="M17.36,8.8c0-0.7,0.56-1.26,1.26-1.26c0.7,0,1.26,0.56,1.26,1.26c0,0.7-0.56,1.26-1.26,1.26
		C17.93,10.06,17.36,9.49,17.36,8.8z M5.37,10.06c0.7,0,1.26-0.56,1.26-1.26c0-0.7-0.56-1.26-1.26-1.26S4.11,8.1,4.11,8.8
		C4.11,9.49,4.68,10.06,5.37,10.06z M0,14.15V3.45C0,2.3,0.93,1.37,2.08,1.37h19.84C23.06,1.37,24,2.3,24,3.45v10.7
		c0,1.15-0.93,2.08-2.08,2.08H2.08C0.94,16.23,0,15.3,0,14.15z M1.78,11.99c0.12-0.02,0.25-0.03,0.37-0.03c1.16,0,2.1,0.94,2.1,2.1
		c0,0.13-0.01,0.26-0.03,0.39h15.4c-0.01-0.08-0.01-0.17-0.01-0.26c0-1.16,0.94-2.1,2.1-2.1c0.18,0,0.35,0.02,0.52,0.06V5.7
		c-0.17,0.04-0.34,0.06-0.52,0.06c-1.16,0-2.1-0.94-2.1-2.1c0-0.18,0.02-0.35,0.06-0.51H4.21C4.24,3.27,4.25,3.4,4.25,3.53
		c0,1.16-0.94,2.1-2.1,2.1c-0.13,0-0.25-0.01-0.37-0.03C1.78,5.6,1.78,11.99,1.78,11.99z M23.11,17.63H0.92
		c-0.49,0-0.89,0.4-0.89,0.89s0.4,0.89,0.89,0.89h22.19c0.49,0,0.89-0.4,0.89-0.89S23.6,17.63,23.11,17.63z M23.11,20.86H0.92
		c-0.49,0-0.89,0.4-0.89,0.89s0.4,0.89,0.89,0.89h22.19c0.49,0,0.89-0.4,0.89-0.89S23.6,20.86,23.11,20.86z M7.44,8.8
		c0-2.51,2.04-4.56,4.56-4.56s4.56,2.04,4.56,4.56s-2.04,4.56-4.56,4.56S7.44,11.31,7.44,8.8z M9.67,8.95l0.85,0.86l0.88,0.89
		l0.89-0.88l2.04-2.03L13.45,6.9l-2.04,2.03l-0.85-0.86L9.67,8.95z"/>
</g>
</svg>
