<?xml version="1.0" encoding="utf-8"?>
<!-- Generator: Adobe Illustrator 25.1.0, SVG Export Plug-In . SVG Version: 6.00 Build 0)  -->
<svg version="1.1" id="Layer_1" xmlns="http://www.w3.org/2000/svg" xmlns:xlink="http://www.w3.org/1999/xlink" x="0px" y="0px"
	 viewBox="0 0 24 24" style="enable-background:new 0 0 24 24;" xml:space="preserve">
<style type="text/css">
	.pigIcon0{fill:#F8AFAD;}
	.pigIcon1{fill:#FBCDCC;}
	.pigIcon2{fill:#010101;}
</style>
<g>
	<path class="st0" d="M10.11,21.08H8.56c0,0-0.82-1.79-1.21-4.25c0.73,0.32,1.52,0.55,2.36,0.69v0
		C9.86,19.36,10.11,21.08,10.11,21.08z"/>
	<path class="st0" d="M19.41,21.08h-1.55c0,0-0.73-1.59-1.13-3.81c0.83-0.14,1.57-0.3,2.23-0.48
		C19.09,18.86,19.41,21.08,19.41,21.08z"/>
</g>
<path class="pigIcon1" d="M5.96,16.08c-0.08,2.26,0.49,5.01,0.49,5.01H4.9c0,0-2.22-5.02-1.86-10c0.3-4.16,3.66-6.87,8.41-6.58
	c1.71,0.1,3.42,0.73,4.91,1.66c0.55-0.99,1.41-1.97,2.68-2.14c0,0,0.82,2.6-0.52,3.88c0.67,0.69,1.07,0.91,1.73,2.41
	c0.65,1.51,3.27,2.18,3.27,2.18l-0.33,2.55c0,0-1.34,0.98-4.21,1.74c-0.66,0.18-1.41,0.34-2.23,0.48c-0.44,0.07-0.9,0.14-1.38,0.19
	c0.15,1.85,0.4,3.62,0.4,3.62H14.2c0,0-0.66-1.44-1.07-3.49l-0.1,0.02c-0.56,0.05-1.02,0.06-1.59,0.06c-0.59,0-1.17-0.05-1.73-0.14
	c-0.84-0.14-1.63-0.37-2.36-0.69C6.86,16.62,6.39,16.37,5.96,16.08z"/>
<path class="pigIcon2" d="M11.41,5.01c0.01,0,0.02,0,0.03,0c0.26,0,0.49-0.21,0.5-0.47c0.02-0.28-0.19-0.52-0.47-0.53
	c-0.07,0-0.14-0.01-0.21-0.01c-0.28-0.01-0.51,0.2-0.53,0.48c-0.01,0.28,0.2,0.51,0.48,0.53C11.28,5,11.35,5,11.41,5.01z"/>
<path class="pigIcon2" d="M17.3,11.94c0-0.14,0.12-0.26,0.26-0.26c0.14,0,0.26,0.12,0.26,0.26c0,0.28,0.23,0.5,0.5,0.5s0.5-0.23,0.5-0.5
	c0-0.7-0.57-1.27-1.27-1.27c-0.7,0-1.27,0.57-1.27,1.27c0,0.28,0.23,0.5,0.5,0.5C17.07,12.44,17.3,12.22,17.3,11.94z"/>
<path class="pigIcon2" d="M0.62,5.09C0.34,5.03,0.07,5.2,0.01,5.47c-0.06,0.27,0.11,0.54,0.38,0.6c0.38,0.09,0.74,0.13,1.09,0.13
	c0.14,0,0.28-0.01,0.41-0.02C2.24,6.96,2.74,7.65,3.3,8.15C2.87,9.02,2.61,10,2.53,11.05c-0.36,5.05,1.81,10.03,1.9,10.24
	c0.08,0.18,0.26,0.3,0.46,0.3h1.55c0.15,0,0.3-0.07,0.39-0.19c0.1-0.12,0.13-0.27,0.1-0.42c0-0.02-0.42-2.05-0.48-4.01
	c0.14,0.08,0.29,0.15,0.43,0.22c0.4,2.35,1.17,4.04,1.2,4.11c0.08,0.18,0.26,0.29,0.46,0.29h1.55c0.15,0,0.29-0.06,0.38-0.17
	c0.1-0.11,0.14-0.26,0.12-0.4c0-0.02-0.2-1.36-0.34-2.9c0.39,0.04,0.78,0.06,1.17,0.06c0.49,0,0.88-0.01,1.28-0.04
	c0.42,1.85,0.99,3.1,1.01,3.16c0.08,0.18,0.26,0.29,0.46,0.29h1.55c0.15,0,0.29-0.06,0.38-0.17c0.1-0.11,0.14-0.26,0.12-0.4
	c0-0.02-0.21-1.48-0.36-3.11c0.15-0.02,0.29-0.04,0.43-0.06c0.42,2.01,1.05,3.39,1.08,3.45c0.08,0.18,0.26,0.29,0.46,0.29h1.55
	c0.15,0,0.29-0.06,0.38-0.17c0.1-0.11,0.14-0.26,0.12-0.4c0-0.02-0.28-1.94-0.42-3.84c2.66-0.76,3.92-1.67,3.98-1.71
	c0.11-0.08,0.18-0.21,0.2-0.34L24,12.56c0.03-0.25-0.13-0.49-0.37-0.55c-0.66-0.17-2.48-0.85-2.93-1.9
	c-0.58-1.33-0.99-1.74-1.5-2.24c1.08-1.53,0.35-3.89,0.32-4c-0.07-0.23-0.31-0.38-0.55-0.35c-1.08,0.15-2.03,0.82-2.78,1.95
	c-0.94-0.54-1.92-0.94-2.93-1.2c-0.27-0.07-0.54,0.1-0.61,0.37c-0.07,0.27,0.1,0.54,0.37,0.61c0.9,0.23,1.82,0.6,2.68,1.1
	C15.19,7.37,15,8.28,14.99,8.32c-0.06,0.27,0.12,0.54,0.39,0.6c0.03,0.01,0.07,0.01,0.1,0.01c0.23,0,0.44-0.16,0.49-0.4
	c0-0.01,0.23-1.07,0.81-2.11c0,0,0-0.01,0.01-0.01c0.52-0.93,1.15-1.53,1.86-1.78c0.14,0.73,0.29,2.16-0.5,2.91c0,0,0,0,0,0
	c0,0,0,0,0,0c-0.01,0.01-0.01,0.01-0.02,0.02c-0.01,0.01-0.01,0.01-0.02,0.02c-0.01,0.01-0.01,0.01-0.02,0.02
	c0,0.01-0.01,0.01-0.01,0.02c-0.01,0.01-0.01,0.02-0.01,0.02c0,0.01-0.01,0.01-0.01,0.02c0,0.01-0.01,0.02-0.01,0.02
	c0,0.01-0.01,0.01-0.01,0.02c0,0.01-0.01,0.02-0.01,0.03c0,0.01-0.01,0.01-0.01,0.02c0,0.01,0,0.02-0.01,0.03
	c0,0.01,0,0.01-0.01,0.02c0,0.01,0,0.02,0,0.03c0,0.01,0,0.01,0,0.02c0,0.01,0,0.02,0,0.03c0,0.01,0,0.01,0,0.02
	c0,0.01,0,0.02,0,0.03c0,0.01,0,0.02,0,0.02c0,0.01,0,0.02,0,0.02c0,0.01,0,0.02,0,0.02c0,0.01,0,0.02,0.01,0.02
	c0,0.01,0,0.02,0.01,0.02c0,0.01,0,0.02,0.01,0.02c0,0.01,0,0.02,0.01,0.02c0,0.01,0.01,0.02,0.01,0.02c0,0.01,0.01,0.02,0.01,0.02
	c0,0.01,0.01,0.01,0.01,0.02c0,0.01,0.01,0.01,0.01,0.02c0,0.01,0.01,0.01,0.02,0.02c0,0.01,0.01,0.01,0.01,0.02
	c0.01,0.01,0.01,0.01,0.02,0.02c0,0.01,0.01,0.01,0.01,0.02c0,0,0,0,0,0c0,0,0,0,0,0c0.12,0.12,0.22,0.22,0.32,0.32
	c0.48,0.47,0.8,0.78,1.3,1.94c0.57,1.33,2.35,2.06,3.18,2.34l-0.24,1.9c-0.43,0.27-1.68,0.96-3.84,1.54c-0.02,0-0.04,0.01-0.06,0.02
	c-0.69,0.18-1.41,0.34-2.16,0.46c-0.44,0.07-0.89,0.14-1.35,0.19c-0.01,0-0.01,0-0.02,0c-0.01,0-0.02,0-0.03,0
	c-0.01,0-0.02,0-0.02,0.01c-0.01,0-0.02,0-0.03,0.01c-0.01,0-0.02,0.01-0.02,0.01c-0.01,0-0.02,0.01-0.02,0.01
	c-0.01,0-0.01,0.01-0.02,0.01c-0.01,0-0.01,0.01-0.02,0.01c-0.01,0-0.01,0.01-0.02,0.01c-0.01,0-0.01,0.01-0.02,0.01
	c-0.01,0-0.01,0.01-0.02,0.01c-0.01,0-0.01,0.01-0.02,0.01c-0.01,0.01-0.01,0.01-0.02,0.02c-0.01,0.01-0.01,0.01-0.02,0.02
	c-0.01,0.01-0.01,0.01-0.02,0.02c-0.01,0.01-0.01,0.01-0.02,0.02c-0.01,0.01-0.01,0.01-0.01,0.02c0,0.01-0.01,0.01-0.01,0.02
	c0,0.01-0.01,0.01-0.01,0.02c0,0.01-0.01,0.01-0.01,0.02c0,0.01-0.01,0.01-0.01,0.02c0,0.01-0.01,0.01-0.01,0.02
	c0,0.01-0.01,0.01-0.01,0.02c0,0.01-0.01,0.02-0.01,0.02c0,0.01,0,0.02-0.01,0.02c0,0.01,0,0.02-0.01,0.02c0,0.01,0,0.02,0,0.02
	c0,0.01,0,0.02,0,0.02c0,0.01,0,0.02,0,0.03c0,0.01,0,0.02,0,0.03c0,0.01,0,0.02,0,0.03c0,0.01,0,0.01,0,0.02
	c0.1,1.21,0.24,2.4,0.33,3.08h-0.64c-0.2-0.51-0.62-1.64-0.91-3.08c-0.04-0.24-0.25-0.42-0.5-0.42c-0.05,0-0.1,0.01-0.15,0.02
	c-0.5,0.04-0.93,0.06-1.53,0.06c-0.56,0-1.11-0.04-1.65-0.13c-0.79-0.13-1.54-0.35-2.24-0.66c-0.46-0.2-0.9-0.44-1.31-0.72
	c-0.1-0.07-0.2-0.14-0.29-0.21c-0.22-0.17-0.54-0.12-0.71,0.1c-0.17,0.22-0.12,0.54,0.1,0.71c0.03,0.03,0.07,0.05,0.1,0.08
	c-0.02,1.6,0.24,3.35,0.39,4.24H5.23c-0.46-1.14-1.99-5.35-1.7-9.46c0.08-1.05,0.36-2,0.82-2.82c0,0,0,0,0,0
	C4.38,8.28,4.39,8.25,4.4,8.22c1.03-1.78,2.92-2.94,5.37-3.19c0.28-0.03,0.48-0.28,0.45-0.55c-0.03-0.28-0.28-0.48-0.55-0.45
	C7.68,4.24,5.96,5,4.69,6.23C4.37,6.55,4.08,6.89,3.82,7.26C3.46,6.9,3.12,6.43,2.87,5.91c0.96-0.47,1.39-1.42,1.31-2.23
	C4.11,2.96,3.65,2.45,3.03,2.42c-0.7-0.04-1.09,0.28-1.3,0.56c-0.37,0.51-0.44,1.3-0.2,2.22C1.25,5.2,0.95,5.17,0.62,5.09z
	 M18.19,20.58c-0.2-0.49-0.59-1.55-0.87-2.9c0.4-0.07,0.79-0.16,1.18-0.25c0.1,1.24,0.24,2.46,0.34,3.15H18.19z M8.89,20.58
	c-0.2-0.49-0.59-1.57-0.88-2.95c0.4,0.13,0.81,0.24,1.23,0.33c0.09,1.05,0.21,2.03,0.29,2.63L8.89,20.58L8.89,20.58z M2.54,3.57
	C2.59,3.5,2.68,3.42,2.91,3.42c0.02,0,0.04,0,0.06,0c0.17,0.01,0.2,0.31,0.21,0.35c0.03,0.34-0.13,0.88-0.66,1.19
	C2.33,4.27,2.39,3.78,2.54,3.57z"/>
</svg>
