<?xml version="1.0" encoding="utf-8"?>
<!-- Generator: Adobe Illustrator 24.1.2, SVG Export Plug-In . SVG Version: 6.00 Build 0)  -->
<svg version="1.1" id="Warstwa_1" xmlns="http://www.w3.org/2000/svg" xmlns:xlink="http://www.w3.org/1999/xlink" x="0px" y="0px"
	 viewBox="0 0 24 24" style="enable-background:new 0 0 24 24;" xml:space="preserve">
<path id="wd" d="M21.87,3.92l-9-3.75c-0.55-0.23-1.18-0.23-1.73,0l-9,3.75C1.3,4.27,0.75,5.09,0.75,6c0,9.31,5.37,15.74,10.38,17.83
	c0.55,0.23,1.18,0.23,1.73,0C16.88,22.15,23.25,16.37,23.25,6C23.25,5.09,22.71,4.27,21.87,3.92z M12.29,22.44
	c-0.18,0.08-0.39,0.08-0.58,0C7.12,20.63,2.25,14.25,2.25,6c0-0.3,0.18-0.58,0.46-0.69l9-3.75c0.18-0.07,0.39-0.07,0.58,0l9,3.75
	C21.57,5.42,21.75,5.7,21.75,6C21.75,14.25,16.88,20.63,12.29,22.44z M18.68,7.21c-0.22-0.22-0.57-0.22-0.8,0l-7.66,7.6l-3.23-3.26
	c-0.22-0.22-0.57-0.22-0.8,0l-0.4,0.4c-0.22,0.22-0.22,0.57,0,0.8l4.03,4.06c0.22,0.22,0.57,0.22,0.8,0l8.46-8.39
	c0.22-0.22,0.22-0.57,0-0.8L18.68,7.21z"/>
</svg>
