<?xml version="1.0" encoding="utf-8"?>
<!-- Generator: Adobe Illustrator 24.1.2, SVG Export Plug-In . SVG Version: 6.00 Build 0)  -->
<svg version="1.1" id="Warstwa_1" xmlns="http://www.w3.org/2000/svg" xmlns:xlink="http://www.w3.org/1999/xlink" x="0px" y="0px"
	 viewBox="0 0 24 24" style="enable-background:new 0 0 24 24;" xml:space="preserve">
<path id="wd" d="M23.67,0.92c-0.08-0.28-0.3-0.5-0.58-0.58c-1.29-0.26-2.6-0.37-3.92-0.33c-4.86,0-7.79,2.58-9.98,6H4.44
	C3.61,6.05,2.85,6.52,2.43,7.25l-2.32,4.63c-0.07,0.16-0.11,0.33-0.12,0.5C0,13,0.5,13.5,1.12,13.5h4.34l-0.5,1
	c-0.44,0.89,0.2,1.63,0.29,1.72l2.52,2.52c0.09,0.09,0.83,0.73,1.72,0.29l1-0.5v4.34c0,0.62,0.5,1.12,1.12,1.12
	c0.17-0.01,0.34-0.05,0.5-0.12l4.63-2.31c0.73-0.41,1.2-1.17,1.24-2.01V14.8c3.41-2.19,6.01-5.13,6.01-9.97
	C24.03,3.52,23.93,2.2,23.67,0.92z M1.73,12l2.04-4.09c0.14-0.24,0.39-0.4,0.67-0.41h3.99c-0.65,1.31-1.49,3-2.23,4.5H1.73z
	 M16.49,19.56c-0.02,0.28-0.17,0.53-0.42,0.67l-4.08,2.04v-4.48c1.5-0.74,3.18-1.57,4.49-2.23V19.56z M17.17,13.55
	c-1.85,0.93-6.37,3.16-8.34,4.13l-2.52-2.51c0.98-1.98,3.21-6.49,4.13-8.35c2.35-3.67,5.05-5.31,8.73-5.31
	c1.04-0.03,2.09,0.04,3.12,0.2c0.16,1.03,0.23,2.08,0.2,3.12C22.49,8.49,20.85,11.18,17.17,13.55L17.17,13.55z M17.24,4.13
	c-1.45,0-2.62,1.17-2.62,2.62c0,1.45,1.17,2.62,2.62,2.62c1.45,0,2.62-1.17,2.62-2.62c0,0,0,0,0,0C19.87,5.31,18.69,4.13,17.24,4.13
	L17.24,4.13z M17.24,7.88c-0.62,0-1.12-0.5-1.12-1.12c0-0.62,0.5-1.12,1.12-1.12s1.12,0.5,1.12,1.12c0,0,0,0,0,0
	C18.37,7.38,17.86,7.88,17.24,7.88z"/>
</svg>
