<svg id="Warstwa_1" data-name="Warstwa 1" xmlns="http://www.w3.org/2000/svg" viewBox="0 0 24 19.93"><path d="M10.08,6.33H22.45a1.55,1.55,0,1,0,0-3.1H10.08a1.55,1.55,0,0,0,0,3.1Z" transform="translate(0 -2.03)"/><path d="M22.45,10.45H10.08a1.55,1.55,0,1,0,0,3.1H22.45a1.55,1.55,0,1,0,0-3.1Z" transform="translate(0 -2.03)"/><path d="M22.45,17.67H10.08a1.55,1.55,0,0,0,0,3.1H22.45a1.55,1.55,0,1,0,0-3.1Z" transform="translate(0 -2.03)"/><path d="M5,10.77l-1-.15-.46-.93a.77.77,0,0,0-1.39,0l-.46.93-1,.15a.78.78,0,0,0-.43,1.32l.75.73-.18,1a.78.78,0,0,0,.31.76.77.77,0,0,0,.46.15.8.8,0,0,0,.36-.09l.92-.49.92.49a.77.77,0,0,0,.36.09h0A.77.77,0,0,0,4.9,14a.62.62,0,0,0,0-.19l-.17-1,.75-.73A.77.77,0,0,0,5,10.77Z" transform="translate(0 -2.03)"/><path d="M5,3.55,4,3.4l-.46-.93a.77.77,0,0,0-1.39,0l-.46.93-1,.15A.78.78,0,0,0,.23,4.87L1,5.6l-.18,1a.78.78,0,0,0,.31.76.77.77,0,0,0,.46.15.8.8,0,0,0,.36-.09L2.85,7l.92.49a.77.77,0,0,0,.36.09h0a.77.77,0,0,0,.77-.78.62.62,0,0,0,0-.19l-.17-1,.75-.73A.77.77,0,0,0,5,3.55Z" transform="translate(0 -2.03)"/><path d="M5,18l-1-.15-.46-.93a.77.77,0,0,0-1.39,0l-.46.93L.66,18a.78.78,0,0,0-.43,1.32L1,20l-.18,1a.78.78,0,0,0,.31.76.77.77,0,0,0,.46.15.8.8,0,0,0,.36-.09l.92-.49.92.49a.77.77,0,0,0,.36.09h0a.77.77,0,0,0,.77-.78.62.62,0,0,0,0-.19l-.17-1,.75-.72A.77.77,0,0,0,5,18Z" transform="translate(0 -2.03)"/></svg>