<?xml version="1.0" encoding="utf-8"?>
<!-- Generator: Adobe Illustrator 24.1.2, SVG Export Plug-In . SVG Version: 6.00 Build 0)  -->
<svg version="1.1" id="Warstwa_1" xmlns="http://www.w3.org/2000/svg" xmlns:xlink="http://www.w3.org/1999/xlink" x="0px" y="0px"
	 viewBox="0 0 24 24" style="enable-background:new 0 0 24 24;" xml:space="preserve">
<path id="wd" d="M23.56,18.25l-5.83-5.83c-1.26-1.26-3.23-1.46-4.72-0.47L9,7.94V4.5L3,0l-3,3l4.5,6h3.44l4.01,4.01
	c-0.98,1.49-0.78,3.46,0.48,4.72l5.83,5.83c0.28,0.28,0.66,0.44,1.06,0.44c0.4,0,0.78-0.16,1.06-0.44l3.18-3.18
	C24.14,19.79,24.14,18.84,23.56,18.25L23.56,18.25z M7.5,7.41V7.5H5.25L1.99,3.14l1.16-1.16L7.5,5.25V7.41z M19.32,22.5l-5.83-5.83
	c-0.88-0.87-0.89-2.3-0.01-3.18c0.87-0.88,2.3-0.89,3.18-0.01c0,0,0.01,0.01,0.01,0.01l5.83,5.83L19.32,22.5z M3,20.25
	C3,20.66,3.34,21,3.75,21s0.75-0.34,0.75-0.75c0-0.41-0.34-0.75-0.75-0.75l0,0C3.34,19.5,3.01,19.83,3,20.25z M12.98,3.14
	c1.04-1.05,2.45-1.64,3.93-1.64c0.33,0,0.65,0.03,0.97,0.08l-3.25,3.25l0.65,3.89l3.89,0.65l3.25-3.25c0.32,1.79-0.26,3.62-1.55,4.9
	c-0.41,0.41-0.89,0.75-1.41,1.01l1.11,1.11c0.5-0.29,0.95-0.65,1.36-1.05c1.77-1.75,2.47-4.31,1.86-6.72
	c-0.11-0.45-0.45-0.8-0.89-0.92c-0.45-0.12-0.92,0-1.25,0.33l-2.99,2.99l-2.07-0.35l-0.35-2.07l2.99-2.99c0.5-0.5,0.5-1.31,0-1.81
	c-0.16-0.16-0.37-0.28-0.6-0.34c-2.41-0.61-4.96,0.1-6.71,1.86c-0.59,0.6-1.07,1.29-1.41,2.06v3.18l1.04,1.04
	C11.07,6.48,11.62,4.5,12.98,3.14L12.98,3.14z M5.02,21.89c-0.82,0.78-2.1,0.78-2.91,0c-0.8-0.81-0.8-2.11,0-2.91l6.85-6.85
	l-1.06-1.06l-6.85,6.85c-1.39,1.39-1.39,3.64-0.01,5.03c0.67,0.67,1.58,1.05,2.52,1.05c0.95,0,1.85-0.37,2.52-1.04l4.77-4.77
	c-0.31-0.43-0.55-0.9-0.73-1.4L5.02,21.89z"/>
</svg>
