<?xml version="1.0" encoding="utf-8"?>
<!-- Generator: Adobe Illustrator 24.1.2, SVG Export Plug-In . SVG Version: 6.00 Build 0)  -->
<svg version="1.1" id="Warstwa_1" xmlns="http://www.w3.org/2000/svg" xmlns:xlink="http://www.w3.org/1999/xlink" x="0px" y="0px"
	 viewBox="0 0 24 24" style="enable-background:new 0 0 24 24;" xml:space="preserve">
<style type="text/css">
	.st0{fill:#EE1D52;}
	.st1{fill:#FFFFFF;}
	.st2{fill:#69C9D0;}
	.st3{fill:none;}
</style>
<path d="M0,0h24v24H0V0z"/>
<path class="st0" d="M5.88,14.95l0.05,0.14C5.92,15.07,5.9,15.02,5.88,14.95z M7.83,11.8c0.09-0.75,0.38-1.16,0.93-1.59
	c0.79-0.58,1.78-0.25,1.78-0.25V8.01c0.24-0.01,0.48,0.01,0.72,0.05v2.51c0,0-0.99-0.33-1.78,0.25c-0.55,0.43-0.85,0.85-0.93,1.59
	c0,0.41,0.07,0.94,0.4,1.39c-0.08-0.05-0.17-0.1-0.26-0.15C7.96,13.13,7.82,12.35,7.83,11.8z M15.34,4.41
	c-0.54-0.62-0.75-1.25-0.82-1.69h0.68c0,0-0.13,1.16,0.86,2.3l0.02,0.02C15.8,4.85,15.55,4.64,15.34,4.41L15.34,4.41z M18.64,6.17
	v2.45c0,0-0.87-0.04-1.52-0.21c-0.9-0.24-1.48-0.61-1.48-0.61s-0.4-0.26-0.43-0.28v5.07c0,0.28-0.07,0.99-0.3,1.57
	c-0.29,0.77-0.75,1.27-0.83,1.38c0,0-0.55,0.68-1.53,1.14c-0.88,0.41-1.65,0.41-1.88,0.41c0,0-1.34,0.05-2.54-0.76
	c-0.26-0.18-0.5-0.38-0.73-0.61l0.01,0.01c1.2,0.82,2.54,0.76,2.54,0.76c0.23-0.01,1,0,1.88-0.41c0.98-0.46,1.53-1.14,1.53-1.14
	c0.08-0.1,0.54-0.61,0.83-1.38c0.22-0.59,0.3-1.29,0.3-1.57V6.93c0.03,0.02,0.43,0.28,0.43,0.28s0.58,0.37,1.48,0.61
	c0.65,0.17,1.52,0.21,1.52,0.21V6.11C18.22,6.17,18.47,6.19,18.64,6.17z"/>
<path class="st1" d="M17.92,6.1v1.92c0,0-0.87-0.04-1.52-0.21c-0.9-0.24-1.48-0.61-1.48-0.61s-0.4-0.26-0.43-0.28V12
	c0,0.28-0.07,0.99-0.3,1.57c-0.29,0.77-0.75,1.28-0.83,1.38c0,0-0.56,0.68-1.53,1.14c-0.88,0.41-1.65,0.41-1.88,0.41
	c0,0-1.34,0.05-2.54-0.76l-0.01-0.01c-0.13-0.13-0.25-0.26-0.36-0.4c-0.38-0.49-0.62-1.07-0.68-1.23v0
	c-0.1-0.29-0.29-0.98-0.27-1.64c0.05-1.17,0.44-1.9,0.55-2.08C6.91,9.9,7.28,9.46,7.7,9.09c0.38-0.32,0.81-0.57,1.27-0.75
	c0.5-0.21,1.03-0.32,1.57-0.33v1.95c0,0-0.99-0.33-1.78,0.25c-0.55,0.43-0.85,0.85-0.93,1.59c0,0.55,0.13,1.33,0.87,1.85
	c0.09,0.06,0.17,0.11,0.26,0.15c0.13,0.17,0.28,0.33,0.47,0.45c0.72,0.48,1.33,0.51,2.1,0.2c0.52-0.21,0.9-0.67,1.08-1.19
	c0.11-0.32,0.11-0.65,0.11-0.98V2.72h1.8c0.07,0.44,0.28,1.07,0.82,1.69c0.22,0.23,0.47,0.44,0.73,0.62
	c0.08,0.09,0.48,0.51,1.01,0.77C17.34,5.93,17.63,6.03,17.92,6.1L17.92,6.1z"/>
<g>
	<path class="st2" d="M5.64,13.51l0.05,0.13C5.68,13.63,5.66,13.58,5.64,13.51z"/>
	<path class="st2" d="M8.97,8.34C8.51,8.52,8.08,8.77,7.7,9.09C7.27,9.46,6.91,9.9,6.64,10.4c-0.11,0.18-0.5,0.9-0.55,2.08
		c-0.03,0.67,0.17,1.35,0.27,1.64v0c0.06,0.16,0.29,0.74,0.68,1.23c0.11,0.14,0.23,0.28,0.36,0.4c-0.41-0.28-0.77-0.62-1.08-1.01
		c-0.38-0.48-0.61-1.06-0.67-1.22v-0.01c-0.1-0.28-0.3-0.98-0.27-1.64c0.05-1.17,0.44-1.9,0.55-2.08C6.19,9.3,6.55,8.86,6.98,8.49
		c0.38-0.32,0.81-0.57,1.27-0.75c0.29-0.12,0.59-0.21,0.89-0.26c0.46-0.08,0.93-0.09,1.4-0.02v0.56C10,8.02,9.46,8.13,8.97,8.34
		L8.97,8.34z"/>
	<path class="st2" d="M14.51,2.72h-1.8v9.56c0,0.34,0,0.66-0.11,0.98c-0.18,0.52-0.57,0.98-1.08,1.19c-0.77,0.31-1.38,0.28-2.1-0.2
		c-0.18-0.12-0.34-0.28-0.47-0.45c0.61,0.33,1.16,0.32,1.85,0.05c0.52-0.21,0.9-0.68,1.08-1.19c0.11-0.32,0.11-0.65,0.11-0.98V2.12
		h2.49C14.48,2.12,14.45,2.35,14.51,2.72z M17.92,5.57V6.1c-0.29-0.07-0.58-0.17-0.84-0.31c-0.52-0.26-0.92-0.68-1.01-0.77
		c0.09,0.06,0.19,0.11,0.28,0.16C16.99,5.51,17.61,5.6,17.92,5.57z"/>
</g>
<path class="st3" d="M14.61,21.05c-0.02-0.07-0.03-0.13-0.03-0.2v-0.01C14.58,20.91,14.59,20.98,14.61,21.05z M16.09,20.84
	L16.09,20.84c0,0.08-0.01,0.14-0.03,0.21C16.08,20.98,16.09,20.91,16.09,20.84z"/>
<path class="st2" d="M14.57,20.84c0,0.07,0.01,0.14,0.03,0.2c0,0.01,0,0.01,0,0.01c0.1,0.32,0.39,0.53,0.73,0.53v0.77
	c-0.38,0-0.64,0.01-1.05-0.23c-0.46-0.28-0.72-0.78-0.72-1.3c0-0.54,0.29-1.08,0.79-1.34c0.36-0.19,0.63-0.19,0.99-0.19v0.77
	C14.92,20.08,14.58,20.42,14.57,20.84L14.57,20.84z"/>
<path class="st0" d="M16.1,20.84c0,0.07-0.01,0.14-0.03,0.2c0,0.01,0,0.01,0,0.01c-0.1,0.32-0.39,0.53-0.73,0.53v0.77
	c0.37,0,0.64,0.01,1.05-0.23c0.47-0.28,0.73-0.78,0.73-1.3c0-0.54-0.29-1.08-0.79-1.34c-0.36-0.19-0.63-0.19-0.99-0.19v0.77
	C15.76,20.08,16.1,20.42,16.1,20.84L16.1,20.84L16.1,20.84z"/>
<path class="st1" d="M3.59,18.61H6.4l-0.26,0.77H5.4v2.96H4.5v-2.96H3.58L3.59,18.61z M11.04,18.61v0.77h0.91v2.96h0.91v-2.96h0.74
	l0.26-0.77H11.04z M7.01,19.49c0.24,0,0.44-0.2,0.44-0.44c0-0.24-0.2-0.44-0.44-0.44c-0.24,0-0.44,0.19-0.44,0.44
	C6.57,19.3,6.76,19.49,7.01,19.49z M6.57,22.34h0.89V19.8H6.57V22.34z M10.65,19.47H9.61l-0.89,0.89v-1.75H7.84l0,3.73h0.89v-0.97
	L9,21.12l0.86,1.22h0.95l-1.25-1.79L10.65,19.47z M19.16,20.56l1.09-1.09h-1.04l-0.89,0.89v-1.75h-0.88l-0.01,3.73h0.89v-0.97
	l0.28-0.25l0.86,1.22h0.95L19.16,20.56z M16.88,20.83c0,0.84-0.69,1.53-1.55,1.53c-0.86,0-1.55-0.68-1.55-1.53s0.69-1.53,1.55-1.53
	S16.88,19.99,16.88,20.83z M16.09,20.83c0-0.42-0.34-0.76-0.76-0.76s-0.76,0.34-0.76,0.76s0.34,0.76,0.76,0.76
	S16.09,21.25,16.09,20.83z"/>
</svg>
