<?xml version="1.0" encoding="utf-8"?>
<!-- Generator: Adobe Illustrator 24.1.2, SVG Export Plug-In . SVG Version: 6.00 Build 0)  -->
<svg version="1.1" id="Warstwa_1" xmlns="http://www.w3.org/2000/svg" xmlns:xlink="http://www.w3.org/1999/xlink" x="0px" y="0px"
	 viewBox="0 0 24 24" style="enable-background:new 0 0 24 24;" xml:space="preserve">
<style type="text/css">
	.st0{fill:#50ABF1;}
	.st1{fill:#FFFFFF;}
</style>
<g>
	<rect class="st0" width="24" height="24"/>
	<path class="st1" d="M3.18,17.79c1.6,1.01,3.49,1.6,5.52,1.6c5.71,0,10.33-4.63,10.33-10.33c0-0.14,0-0.28-0.01-0.42
		c0.21-0.16,1.48-1.19,1.8-1.84c0,0-1.04,0.43-2.05,0.53c0,0,0,0-0.01,0c0,0,0,0,0.01,0c0.09-0.06,1.4-0.95,1.58-2.01
		c0,0-0.73,0.39-1.76,0.73c-0.17,0.06-0.35,0.11-0.53,0.16c-0.66-0.71-1.6-1.15-2.65-1.15c-2,0-3.63,1.62-3.63,3.62
		c0,0.28,0.03,0.56,0.09,0.82C11.6,9.49,7.34,9.25,4.44,5.74c0,0-1.73,2.37,1.03,4.8c0,0-0.84-0.03-1.57-0.47
		c0,0-0.27,2.87,2.87,3.6c0,0-0.62,0.23-1.6,0.07c0,0,0.55,2.32,3.33,2.53C8.5,16.27,6.3,18.26,3.18,17.79L3.18,17.79z"/>
</g>
</svg>
