<?xml version="1.0" encoding="utf-8"?>
<!-- Generator: Adobe Illustrator 25.1.0, SVG Export Plug-In . SVG Version: 6.00 Build 0)  -->
<svg version="1.1" id="Layer_1" xmlns="http://www.w3.org/2000/svg" xmlns:xlink="http://www.w3.org/1999/xlink" x="0px" y="0px"
	 viewBox="0 0 24 24" style="enable-background:new 0 0 24 24;" xml:space="preserve">

<g id="XMLID_826_">
	<path id="XMLID_827_" d="M23.46,4.44c-0.38,0.17-0.76,0.31-1.16,0.42c0.47-0.53,0.83-1.15,1.04-1.84
		c0.05-0.15,0-0.32-0.13-0.42c-0.13-0.1-0.3-0.11-0.44-0.03c-0.84,0.5-1.75,0.86-2.7,1.07c-0.96-0.94-2.26-1.47-3.61-1.47
		c-2.84,0-5.15,2.31-5.15,5.15c0,0.22,0.01,0.45,0.04,0.67c-3.53-0.31-6.8-2.04-9.05-4.8c-0.08-0.1-0.2-0.15-0.33-0.14
		c-0.13,0.01-0.24,0.08-0.3,0.19c-0.46,0.78-0.7,1.68-0.7,2.59c0,1.24,0.44,2.42,1.23,3.34C1.96,9.09,1.73,8.98,1.51,8.86
		c-0.12-0.07-0.26-0.06-0.38,0C1.01,8.93,0.94,9.06,0.93,9.19c0,0.02,0,0.05,0,0.07c0,1.85,1,3.52,2.52,4.43
		c-0.13-0.01-0.26-0.03-0.39-0.06c-0.13-0.03-0.27,0.02-0.36,0.12c-0.09,0.1-0.12,0.24-0.08,0.37c0.56,1.76,2.02,3.06,3.77,3.45
		c-1.46,0.91-3.12,1.39-4.87,1.39c-0.36,0-0.73-0.02-1.09-0.06C0.25,18.89,0.08,19,0.02,19.17c-0.06,0.17,0,0.36,0.16,0.46
		c2.25,1.44,4.85,2.2,7.51,2.2c5.25,0,8.53-2.47,10.36-4.55c2.28-2.59,3.59-6.01,3.59-9.4c0-0.14,0-0.28-0.01-0.43
		c0.9-0.68,1.67-1.5,2.31-2.44c0.1-0.14,0.09-0.33-0.03-0.46C23.8,4.42,23.61,4.37,23.46,4.44z"/>
</g>
</svg>
