<?xml version="1.0" encoding="utf-8"?>
<!-- Generator: Adobe Illustrator 25.1.0, SVG Export Plug-In . SVG Version: 6.00 Build 0)  -->
<svg version="1.1" id="Layer_1" xmlns="http://www.w3.org/2000/svg" xmlns:xlink="http://www.w3.org/1999/xlink" x="0px" y="0px"
	 viewBox="0 0 24 24" style="enable-background:new 0 0 24 24;" xml:space="preserve">

<g>
	<path  d="M10.55,17.75c0,0.03,0,0.07-0.02,0.09c-0.11,0.14-0.24,0.26-0.41,0.32c-0.15,0.05-0.27-0.01-0.3-0.17
		c-0.01-0.06-0.01-0.13-0.01-0.19c0-1.16,0-3.54-0.01-3.57H8.95c0,0.03,0,3.35,0,3.98c0,0.17,0.02,0.34,0.09,0.5
		c0.08,0.17,0.2,0.28,0.39,0.31c0.14,0.02,0.27,0.01,0.4-0.04c0.27-0.09,0.48-0.27,0.66-0.47c0.02-0.02,0.03-0.04,0.06-0.07v0.52
		h0.86v-2.28c0-0.79,0-2.45,0-2.45l-0.86,0L10.55,17.75L10.55,17.75z"/>
	<path  d="M14.61,14.61c-0.18-0.39-0.56-0.49-0.89-0.41c-0.2,0.05-0.36,0.17-0.5,0.31c-0.04,0.05-0.09,0.15-0.09,0.15
		s0-1.43,0-2.11h-0.86v6.4h0.86V18.6c0,0,0.06,0.06,0.08,0.09c0.2,0.21,0.44,0.33,0.73,0.33c0.36,0,0.62-0.17,0.73-0.52
		c0.05-0.16,0.07-0.33,0.07-0.49c0-0.89,0-1.79,0-2.68C14.75,15.08,14.72,14.83,14.61,14.61z M13.87,17.9c0,0.05-0.01,0.1-0.02,0.14
		c-0.04,0.19-0.18,0.27-0.38,0.23c-0.12-0.03-0.22-0.1-0.3-0.18c0,0-0.03-0.04-0.03-0.04v-0.07l0-2.84c0,0,0.02-0.05,0.06-0.09
		c0.1-0.09,0.21-0.15,0.35-0.13c0.12,0.01,0.21,0.07,0.26,0.18c0.03,0.08,0.06,0.18,0.06,0.27C13.87,16.21,13.87,17.06,13.87,17.9z"
		/>
	<path  d="M11.52,9.03c0.2,0,0.36-0.16,0.36-0.36V6.09c0-0.2-0.16-0.36-0.36-0.36c-0.2,0-0.36,0.16-0.36,0.36v2.57
		C11.16,8.86,11.32,9.03,11.52,9.03z"/>
	<polygon  points="8.95,12.56 5.97,12.56 5.97,13.47 6.97,13.47 6.97,18.96 7.94,18.96 7.94,13.47 8.95,13.47 	"/>
	<path  d="M17.07,17.28v0.61c0,0.21-0.17,0.38-0.38,0.38c-0.21,0-0.38-0.17-0.38-0.38V16.7h1.65c0,0,0.01-0.82,0-1.2
		c0-0.16-0.01-0.32-0.05-0.48c-0.09-0.4-0.3-0.71-0.71-0.84c-0.12-0.04-0.25-0.06-0.37-0.07c-0.42-0.03-0.79,0.09-1.07,0.41
		c-0.25,0.28-0.34,0.62-0.34,0.99c0,0.7,0,1.4,0,2.1c0,0.18,0.02,0.36,0.06,0.53c0.09,0.37,0.29,0.67,0.65,0.83
		c0.26,0.12,0.54,0.12,0.82,0.08c0.45-0.07,0.76-0.31,0.91-0.75c0.11-0.33,0.1-1.04,0.1-1.04L17.07,17.28L17.07,17.28z M16.31,15.31
		c0-0.21,0.17-0.38,0.38-0.38c0.21,0,0.38,0.17,0.38,0.38v0.66h-0.77V15.31z"/>
	<path  d="M0,0.5V23.5C0,23.78,0.22,24,0.5,24H23.5c0.27,0,0.5-0.22,0.5-0.5V0.62C24,0.28,23.72,0,23.38,0H0.5
		C0.22,0,0,0.22,0,0.5z M13.52,5h0.87v3.62c0,0.05,0,0.1,0.01,0.14c0.03,0.15,0.14,0.22,0.28,0.17c0.18-0.06,0.31-0.18,0.42-0.33
		c0.02-0.02,0.01-0.06,0.01-0.09V5H16l0,4.75h-0.88l0-0.51c-0.1,0.1-0.18,0.19-0.27,0.27c-0.16,0.14-0.35,0.25-0.56,0.29
		c-0.33,0.06-0.61-0.04-0.71-0.38c-0.03-0.11-0.06-0.24-0.06-0.35V5z M11.52,4.88L11.52,4.88c0.7,0,1.26,0.56,1.26,1.26v2.47
		c0,0.7-0.56,1.26-1.26,1.26l0,0c-0.7,0-1.26-0.56-1.26-1.26V6.14C10.26,5.45,10.82,4.88,11.52,4.88z M8.13,3.32
		c0,0,0.4,1.7,0.59,2.51h0c0.19-0.81,0.59-2.51,0.59-2.51h1c0,0-0.75,2.47-1.1,3.64C9.2,7.04,9.19,7.12,9.18,7.2l0,2.55H8.26l0-2.55
		C8.25,7.12,8.24,7.04,8.22,6.96c-0.35-1.16-1.1-3.64-1.1-3.64H8.13z M19.15,18.48c0,1.17-0.93,2.12-2.1,2.15
		c-3.2,0.07-6.41,0.07-9.62,0.01C6,20.61,4.85,19.42,4.85,17.99v-4.28c0-1.43,1.14-2.61,2.58-2.64c3.05-0.06,6.09-0.06,9.14,0
		c1.43,0.03,2.58,1.21,2.58,2.64L19.15,18.48L19.15,18.48z"/>
</g>
</svg>
