<?xml version="1.0" encoding="utf-8"?>
<!-- Generator: Adobe Illustrator 24.1.2, SVG Export Plug-In . SVG Version: 6.00 Build 0)  -->
<svg version="1.1" id="Warstwa_1" xmlns="http://www.w3.org/2000/svg" xmlns:xlink="http://www.w3.org/1999/xlink" x="0px" y="0px"
	 viewBox="0 0 24 24" style="enable-background:new 0 0 24 24;" xml:space="preserve">
<style type="text/css">
	.st0{fill:#DC472E;}
	.st1{fill:#FFFFFF;}
</style>
<g>
	<rect class="st0" width="24" height="24"/>
	<g>
		<path class="st1" d="M13.86,15.36c0-0.09-0.03-0.18-0.06-0.27c-0.04-0.11-0.14-0.16-0.26-0.18c-0.14-0.01-0.25,0.04-0.35,0.13
			c-0.04,0.04-0.06,0.09-0.06,0.09l0,2.84v0.07c0,0,0.02,0.03,0.03,0.04c0.08,0.09,0.18,0.16,0.3,0.18c0.2,0.04,0.34-0.04,0.38-0.23
			c0.01-0.05,0.02-0.1,0.02-0.14C13.87,17.06,13.87,16.21,13.86,15.36z M13.86,15.36c0-0.09-0.03-0.18-0.06-0.27
			c-0.04-0.11-0.14-0.16-0.26-0.18c-0.14-0.01-0.25,0.04-0.35,0.13c-0.04,0.04-0.06,0.09-0.06,0.09l0,2.84v0.07
			c0,0,0.02,0.03,0.03,0.04c0.08,0.09,0.18,0.16,0.3,0.18c0.2,0.04,0.34-0.04,0.38-0.23c0.01-0.05,0.02-0.1,0.02-0.14
			C13.87,17.06,13.87,16.21,13.86,15.36z M17.05,11.08c-3.36-0.07-6.73-0.07-10.09,0c-1.17,0.02-2.1,0.98-2.1,2.15v5.25
			c0,1.17,0.93,2.12,2.1,2.15c3.36,0.07,6.73,0.07,10.09,0c1.17-0.02,2.1-0.98,2.1-2.15v-5.25C19.15,12.06,18.21,11.1,17.05,11.08z
			 M7.94,18.96H6.97v-5.48h-1v-0.92h2.98v0.92H7.94V18.96z M11.41,16.68v2.28h-0.86v-0.52c-0.03,0.03-0.05,0.05-0.06,0.07
			c-0.18,0.21-0.39,0.38-0.66,0.47c-0.13,0.04-0.26,0.06-0.4,0.04c-0.19-0.03-0.31-0.14-0.39-0.31c-0.07-0.16-0.09-0.33-0.09-0.5
			c0-0.63,0-3.94,0-3.98H9.8c0,0.03,0,2.41,0.01,3.57c0,0.06,0,0.13,0.01,0.19c0.03,0.16,0.15,0.22,0.3,0.17
			c0.17-0.06,0.3-0.18,0.41-0.32c0.02-0.02,0.02-0.06,0.02-0.09v-3.52l0.86,0C11.41,14.23,11.41,15.89,11.41,16.68z M14.68,18.5
			c-0.11,0.35-0.37,0.52-0.73,0.52c-0.3,0-0.54-0.12-0.73-0.33c-0.02-0.02-0.08-0.09-0.08-0.09v0.36h-0.86v-6.4h0.86
			c0,0.68,0,2.11,0,2.11s0.05-0.1,0.09-0.15c0.13-0.15,0.3-0.26,0.5-0.31c0.33-0.08,0.71,0.02,0.89,0.41
			c0.11,0.23,0.14,0.47,0.14,0.72c0,0.89,0,1.79,0,2.68C14.75,18.18,14.73,18.34,14.68,18.5z M17.86,18.32
			c-0.15,0.44-0.46,0.68-0.91,0.75c-0.28,0.04-0.56,0.04-0.82-0.08c-0.36-0.16-0.56-0.46-0.65-0.83c-0.04-0.17-0.06-0.36-0.06-0.53
			c-0.01-0.7,0-1.4,0-2.1c0-0.37,0.09-0.7,0.34-0.99c0.29-0.32,0.65-0.44,1.07-0.41c0.13,0.01,0.25,0.03,0.37,0.07
			c0.41,0.13,0.62,0.44,0.71,0.84c0.03,0.16,0.04,0.32,0.05,0.48c0.01,0.37,0,1.2,0,1.2h-1.65v1.18c0,0.21,0.17,0.38,0.38,0.38
			c0.21,0,0.38-0.17,0.38-0.38v-0.61h0.89C17.96,17.28,17.97,17.99,17.86,18.32z M17.07,15.31c0-0.21-0.17-0.38-0.38-0.38
			c-0.21,0-0.38,0.17-0.38,0.38v0.66h0.77V15.31z M13.8,15.1c-0.04-0.11-0.14-0.16-0.26-0.18c-0.14-0.01-0.25,0.04-0.35,0.13
			c-0.04,0.04-0.06,0.09-0.06,0.09l0,2.84v0.07c0,0,0.02,0.03,0.03,0.04c0.08,0.09,0.18,0.16,0.3,0.18c0.2,0.04,0.34-0.04,0.38-0.23
			c0.01-0.05,0.02-0.1,0.02-0.14c0-0.85,0-1.69,0-2.54C13.86,15.27,13.84,15.18,13.8,15.1z"/>
		<path class="st1" d="M16,5l0,4.75h-0.88l0-0.51c-0.1,0.1-0.18,0.19-0.27,0.27c-0.16,0.14-0.35,0.25-0.56,0.29
			c-0.33,0.06-0.61-0.04-0.71-0.38c-0.03-0.11-0.06-0.24-0.06-0.35V5h0.87v3.62c0,0.05,0,0.1,0.01,0.14
			c0.03,0.15,0.14,0.22,0.28,0.17c0.18-0.06,0.31-0.18,0.42-0.33c0.02-0.02,0.01-0.06,0.01-0.09V5H16z"/>
		<path class="st1" d="M8.72,5.83C8.53,5.02,8.13,3.32,8.13,3.32h-1c0,0,0.77,2.55,1.11,3.69C8.25,7.05,8.26,7.1,8.26,7.14l0,2.61
			h0.92l0-2.61c0-0.04,0.01-0.09,0.02-0.13c0.34-1.14,1.11-3.69,1.11-3.69h-1C9.31,3.32,8.91,5.02,8.72,5.83L8.72,5.83z"/>
		<path class="st1" d="M11.52,4.88L11.52,4.88c-0.7,0-1.26,0.56-1.26,1.26v2.47c0,0.7,0.56,1.26,1.26,1.26l0,0
			c0.7,0,1.26-0.56,1.26-1.26V6.14C12.78,5.45,12.22,4.88,11.52,4.88z M11.88,8.66c0,0.2-0.16,0.36-0.36,0.36
			c-0.2,0-0.36-0.16-0.36-0.36V6.09c0-0.2,0.16-0.36,0.36-0.36c0.2,0,0.36,0.16,0.36,0.36V8.66z"/>
	</g>
</g>
</svg>
