<svg xmlns="http://www.w3.org/2000/svg"  viewBox="0 0 122.82 43.44">
  <path id="Path_1" data-name="Path 1" d="M40.62-42.84v26.82a18.165,18.165,0,0,1-1.98,8.61,13.935,13.935,0,0,1-6.03,5.88A21.561,21.561,0,0,1,22.5.6Q13.86.6,9.3-3.84T4.74-15.96V-42.84H15V-17.1q0,4.98,1.95,7.05a7.583,7.583,0,0,0,5.79,2.07q4.02,0,5.85-2.19t1.83-6.99V-42.84ZM86.82,0H75.06L65.88-14.88,56.7,0H45.42L59.64-22.02,46.26-42.84H57.6l8.58,14.4,8.28-14.4H85.8L72.36-21.3Zm40.74-42.84v26.82a18.165,18.165,0,0,1-1.98,8.61,13.935,13.935,0,0,1-6.03,5.88A21.561,21.561,0,0,1,109.44.6q-8.64,0-13.2-4.44T91.68-15.96V-42.84h10.26V-17.1q0,4.98,1.95,7.05a7.583,7.583,0,0,0,5.79,2.07q4.02,0,5.85-2.19t1.83-6.99V-42.84Z" transform="translate(-4.74 42.84)"/>
</svg>
